<svg xmlns="http://www.w3.org/2000/svg" xmlns:svg="http://www.w3.org/2000/svg" id="svg26" width="128" height="128" version="1.1" viewBox="0 0 512 512"><metadata id="metadata32"/><path style="fill:#878787;fill-rule:evenodd" id="path2" d="m 471.95,253.05 c 0,120.9 -98.01,218.9 -218.9,218.9 -120.9,0 -218.9,-98.01 -218.9,-218.9 0,-120.9 98.01,-218.9 218.9,-218.9 120.9,0 218.9,98.01 218.9,218.9"/><path style="opacity:.25;fill:#000;fill-opacity:1;stroke:none;stroke-width:1px;stroke-linecap:butt;stroke-linejoin:miter;stroke-opacity:1" id="path4518" d="m 382.91525,126.91525 92.28899,105.52458 c 3.40059,83.78873 -33.0988,156.50389 -86.86526,191.69576 -51.21945,38.82842 -108.60088,53.0089 -171.38983,45.55933 l -86.77966,-84.61017 z"/><g id="g18" fill-rule="evenodd"><path id="path8" fill-opacity=".067" d="m256 1c-140.83 0-255 114.17-255 255s114.17 255 255 255 255-114.17 255-255-114.17-255-255-255m8.827 44.931c120.9 0 218.9 98 218.9 218.9s-98 218.9-218.9 218.9-218.93-98-218.93-218.9 98.03-218.9 218.93-218.9"/><g id="g14" fill-opacity=".129"><path id="path10" d="m256 4.433c-138.94 0-251.57 112.63-251.57 251.57s112.63 251.57 251.57 251.57 251.57-112.63 251.57-251.57-112.63-251.57-251.57-251.57m5.885 38.556c120.9 0 218.9 98 218.9 218.9s-98 218.9-218.9 218.9-218.93-98-218.93-218.9 98.03-218.9 218.93-218.9"/><path id="path12" d="m256 8.356c-136.77 0-247.64 110.87-247.64 247.64s110.87 247.64 247.64 247.64 247.64-110.87 247.64-247.64-110.87-247.64-247.64-247.64m2.942 31.691c120.9 0 218.9 98 218.9 218.9s-98 218.9-218.9 218.9-218.93-98-218.93-218.9 98.03-218.9 218.93-218.9"/></g><path id="path16" fill="#fff" stroke="#000" stroke-opacity=".31" stroke-width="4.904" d="m253.04 7.859c-135.42 0-245.19 109.78-245.19 245.19 0 135.42 109.78 245.19 245.19 245.19 135.42 0 245.19-109.78 245.19-245.19 0-135.42-109.78-245.19-245.19-245.19zm0 26.297c120.9 0 218.9 98 218.9 218.9s-98 218.9-218.9 218.9-218.93-98-218.93-218.9 98.03-218.9 218.93-218.9z"/></g><path style="opacity:1;fill:#fff;stroke-width:34.58610153;stroke:none;fill-opacity:1" id="path5" d="m 359.84183,117.49355 a 34.586102,34.586102 0 0 0 -24.45341,10.1327 l -79.3049,79.30489 -78.96699,-78.96699 a 34.586102,34.586102 0 0 0 -0.34586,-0.34586 34.586102,34.586102 0 0 0 -24.25074,-9.99746 l -0.34586,0.47383 a 34.586102,34.586102 0 0 0 -34.58609,34.5861 34.586102,34.586102 0 0 0 10.13268,24.45342 l 79.3049,79.30489 -79.3049,79.3049 a 34.586102,34.586102 0 0 0 -9.99746,24.18328 34.586102,34.586102 0 0 0 34.5861,34.58611 34.586102,34.586102 0 0 0 24.45342,-10.13269 l 79.30489,-79.30489 78.96699,78.96698 a 34.586102,34.586102 0 0 0 24.79132,10.4706 34.586102,34.586102 0 0 0 34.5861,-34.58611 34.586102,34.586102 0 0 0 -10.13269,-24.4534 l -79.57501,-79.50756 78.96698,-78.967 a 34.586102,34.586102 0 0 0 10.74072,-24.92655 34.586102,34.586102 0 0 0 -34.5861,-34.5861 z" class="ColorScheme-Text"/></svg>