<svg xmlns="http://www.w3.org/2000/svg" xmlns:svg="http://www.w3.org/2000/svg" xmlns:xlink="http://www.w3.org/1999/xlink" id="svg3783" width="11" height="10" version="1.1"><defs id="defs3785"><linearGradient id="linearGradient4313"><stop style="stop-color:#fff;stop-opacity:.19607843" id="stop4315" offset="0"/><stop style="stop-color:#fff;stop-opacity:.05882353" id="stop4317" offset="1"/></linearGradient><linearGradient id="linearGradient4319" x1="26" x2="26" y1="2" y2="20" gradientUnits="userSpaceOnUse" xlink:href="#linearGradient4313"/><linearGradient id="linearGradient4325" x1="26" x2="26" y1="2" y2="20" gradientUnits="userSpaceOnUse" xlink:href="#linearGradient4313"/><linearGradient id="linearGradient4329" x1="26" x2="26" y1="2" y2="20" gradientUnits="userSpaceOnUse" xlink:href="#linearGradient4313"/><linearGradient id="linearGradient4331" x1="26" x2="26" y1="2" y2="20" gradientUnits="userSpaceOnUse" xlink:href="#linearGradient4313"/><linearGradient id="linearGradient4350" x1="26" x2="26" y1="2" y2="20" gradientTransform="translate(0,1020.3622)" gradientUnits="userSpaceOnUse" xlink:href="#linearGradient4313"/><linearGradient id="linearGradient4357" x1="26" x2="26" y1="2" y2="20" gradientUnits="userSpaceOnUse" xlink:href="#linearGradient4313"/><linearGradient id="linearGradient4359" x1="26" x2="26" y1="2" y2="20" gradientUnits="userSpaceOnUse" xlink:href="#linearGradient4313"/><linearGradient id="linearGradient4416" x1="26" x2="26" y1="2" y2="20" gradientTransform="translate(0,1030.3622)" gradientUnits="userSpaceOnUse" xlink:href="#linearGradient4313"/><linearGradient id="linearGradient4419" x1="26" x2="26" y1="2" y2="20" gradientTransform="translate(0,1030.3622)" gradientUnits="userSpaceOnUse" xlink:href="#linearGradient4313"/><linearGradient id="linearGradient4433" x1="26" x2="26" y1="2" y2="20" gradientTransform="translate(0,1030.3622)" gradientUnits="userSpaceOnUse" xlink:href="#linearGradient4313"/><linearGradient id="linearGradient4437" x1="26" x2="26" y1="2" y2="20" gradientTransform="translate(0,1030.3622)" gradientUnits="userSpaceOnUse" xlink:href="#linearGradient4313"/><linearGradient id="linearGradient4439" x1="26" x2="26" y1="2" y2="20" gradientUnits="userSpaceOnUse" xlink:href="#linearGradient4313"/><linearGradient id="linearGradient4442" x1="26" x2="26" y1="2" y2="30" gradientUnits="userSpaceOnUse" xlink:href="#linearGradient4313"/><linearGradient id="linearGradient4446" x1="26" x2="26" y1="-1" y2="20" gradientTransform="translate(0,1030.3622)" gradientUnits="userSpaceOnUse" xlink:href="#linearGradient4313"/><linearGradient id="linearGradient3780" x1="26" x2="26" y1="-1" y2="20" gradientTransform="translate(0,1050.3622)" gradientUnits="userSpaceOnUse" xlink:href="#linearGradient4313"/><clipPath id="clipPath3783" clipPathUnits="userSpaceOnUse"><path style="opacity:.4;color:#000;fill:#f0f;fill-opacity:1;fill-rule:nonzero;stroke:none;stroke-width:1;marker:none;visibility:visible;display:inline;overflow:visible;enable-background:accumulate" id="path3785" d="m 0,1040.3622 0,22 48,0 0,-22 -48,0 z m 4.5,2 39,0 c 1.385,0 2.5,1.115 2.5,2.5 l 0,13 c 0,1.385 -1.115,2.5 -2.5,2.5 l -39,0 c -1.385,0 -2.5,-1.115 -2.5,-2.5 l 0,-13 c 0,-1.385 1.115,-2.5 2.5,-2.5 z"/></clipPath><linearGradient id="linearGradient3797" x1="26" x2="26" y1="2" y2="20" gradientTransform="translate(0,1030.3622)" gradientUnits="userSpaceOnUse" xlink:href="#linearGradient4313"/><linearGradient id="linearGradient3803" x1="26" x2="26" y1="2" y2="20" gradientTransform="translate(0,1030.3622)" gradientUnits="userSpaceOnUse" xlink:href="#linearGradient4313"/><linearGradient id="linearGradient3807" x1="26" x2="26" y1="2" y2="20" gradientTransform="translate(0,1030.3622)" gradientUnits="userSpaceOnUse" xlink:href="#linearGradient4313"/><linearGradient id="linearGradient3809" x1="26" x2="26" y1="2" y2="20" gradientUnits="userSpaceOnUse" xlink:href="#linearGradient4313"/><linearGradient id="linearGradient3812" x1="26" x2="26" y1="2" y2="30" gradientUnits="userSpaceOnUse" xlink:href="#linearGradient4313"/><linearGradient id="linearGradient3785" x1="26" x2="26" y1="2" y2="20" gradientTransform="translate(0,1032.3622)" gradientUnits="userSpaceOnUse" xlink:href="#linearGradient4313"/><linearGradient id="linearGradient3787" x1="26" x2="26" y1="2" y2="20" gradientUnits="userSpaceOnUse" xlink:href="#linearGradient4313"/></defs><metadata id="metadata3788"/><g id="layer1" transform="translate(-37,-1042.3622)"><path style="opacity:.81553399000000004;fill:#b3b3b3;fill-opacity:1;stroke:none" id="path3787" d="m 37,1042.3622 0,10 1,-1 1,-1 1,-1 0,-4 4,0 1,-1 1,-1 1,-1 z"/><rect style="fill:#fea63c;fill-opacity:1" id="rect3779" width="3" height="3" x="4" y="4" transform="translate(37,1042.3622)"/></g></svg>