<svg xmlns="http://www.w3.org/2000/svg" xmlns:svg="http://www.w3.org/2000/svg" xmlns:xlink="http://www.w3.org/1999/xlink" id="svg3783" width="48" height="20" version="1.1"><defs id="defs3785"><linearGradient id="linearGradient4313"><stop style="stop-color:#fff;stop-opacity:.19607843" id="stop4315" offset="0"/><stop style="stop-color:#fff;stop-opacity:.11764706" id="stop4317" offset="1"/></linearGradient><linearGradient id="linearGradient4319" x1="26" x2="26" y1="2" y2="20" gradientUnits="userSpaceOnUse" xlink:href="#linearGradient4313"/><linearGradient id="linearGradient4325" x1="26" x2="26" y1="2" y2="20" gradientUnits="userSpaceOnUse" xlink:href="#linearGradient4313"/><linearGradient id="linearGradient4329" x1="26" x2="26" y1="2" y2="20" gradientUnits="userSpaceOnUse" xlink:href="#linearGradient4313"/><linearGradient id="linearGradient4331" x1="26" x2="26" y1="2" y2="20" gradientUnits="userSpaceOnUse" xlink:href="#linearGradient4313"/><linearGradient id="linearGradient4350" x1="26" x2="26" y1="2" y2="20" gradientTransform="translate(0,1020.3622)" gradientUnits="userSpaceOnUse" xlink:href="#linearGradient4313"/><linearGradient id="linearGradient4357" x1="26" x2="26" y1="2" y2="20" gradientUnits="userSpaceOnUse" xlink:href="#linearGradient4313"/><linearGradient id="linearGradient4359" x1="26" x2="26" y1="2" y2="20" gradientUnits="userSpaceOnUse" xlink:href="#linearGradient4313"/><linearGradient id="linearGradient4416" x1="26" x2="26" y1="2" y2="20" gradientTransform="translate(0,1030.3622)" gradientUnits="userSpaceOnUse" xlink:href="#linearGradient4313"/><linearGradient id="linearGradient4419" x1="26" x2="26" y1="2" y2="20" gradientTransform="translate(0,1030.3622)" gradientUnits="userSpaceOnUse" xlink:href="#linearGradient4313"/><clipPath id="clipPath4425" clipPathUnits="userSpaceOnUse"><path style="opacity:.4;color:#000;fill:#f0f;fill-opacity:1;fill-rule:nonzero;stroke:none;stroke-width:1;marker:none;visibility:visible;display:inline;overflow:visible;enable-background:accumulate" id="path4427" d="m 0,1040.3622 0,22 48,0 0,-22 -48,0 z m 4,2 1,0 38,0 1,0 c 1.108,0 2,0.892 2,2 l 0,1 0,12 0,1 c 0,1.108 -0.892,2 -2,2 l -1,0 -38,0 -1,0 c -1.108,0 -2,-0.892 -2,-2 l 0,-1 0,-12 0,-1 c 0,-1.108 0.892,-2 2,-2 z"/></clipPath><linearGradient id="linearGradient4433" x1="26" x2="26" y1="2" y2="20" gradientTransform="translate(0,1030.3622)" gradientUnits="userSpaceOnUse" xlink:href="#linearGradient4313"/><linearGradient id="linearGradient4437" x1="26" x2="26" y1="2" y2="20" gradientTransform="translate(0,1030.3622)" gradientUnits="userSpaceOnUse" xlink:href="#linearGradient4313"/><linearGradient id="linearGradient4439" x1="26" x2="26" y1="2" y2="20" gradientUnits="userSpaceOnUse" xlink:href="#linearGradient4313"/><linearGradient id="linearGradient4442" x1="26" x2="26" y1="2" y2="30" gradientUnits="userSpaceOnUse" xlink:href="#linearGradient4313"/><linearGradient id="linearGradient3789" x1="21" x2="21" y1="21" y2="1" gradientUnits="userSpaceOnUse" xlink:href="#linearGradient4313"/><clipPath id="clipPath3795" clipPathUnits="userSpaceOnUse"><rect id="rect3797" width="44" height="18" x="2" y="1032.362" ry="2.5" style="opacity:.1;color:#000;fill:#f0f;fill-opacity:1;fill-rule:nonzero;stroke:none;stroke-width:1;marker:none;visibility:visible;display:inline;overflow:visible;enable-background:accumulate"/></clipPath></defs><metadata id="metadata3788"/><g id="layer1" transform="translate(0,-1032.3622)"><path style="opacity:1;color:#000;fill:#999;fill-opacity:1;fill-rule:nonzero;stroke:none;stroke-width:2;marker:none;visibility:visible;display:inline;overflow:visible;enable-background:accumulate" id="rect3011" d="m 0,16 0,2 0,2 48,0 0,-2 0,-2 -1,0 0,3 -46,0 0,-3 z" transform="translate(0,1032.3622)"/></g></svg>